<svg id="be2c8e8e-2dd6-484c-9a4e-d92191310176" data-name="Layer 1" xmlns="http://www.w3.org/2000/svg" viewBox="0 0 1231.39 213.48"><defs><style>.e1c2c7ec-9ad6-43c7-a9d4-89ed0e1045c1{fill:#404040;}.bfcb9499-27af-4796-8c10-abac54c060eb{fill:#3cc;}</style></defs><title>20.03-EK-logo</title><path class="e1c2c7ec-9ad6-43c7-a9d4-89ed0e1045c1" d="M297,581.53A42.47,42.47,0,0,1,275.11,576a44,44,0,0,1-10.37-8.3,2.66,2.66,0,0,0-4.61,1.8v46.79a2.66,2.66,0,0,1-2.66,2.66H241.12a2.66,2.66,0,0,1-2.66-2.66V485.94a2.66,2.66,0,0,1,2.66-2.66h13.79a2.66,2.66,0,0,1,2.66,2.66v7.18a2.65,2.65,0,0,0,4.55,1.86,44.39,44.39,0,0,1,10.72-8.2A43.13,43.13,0,0,1,294,481.62a46.23,46.23,0,0,1,19.51,4.06,49.11,49.11,0,0,1,25.52,26.72,50.29,50.29,0,0,1,3.64,19A56.32,56.32,0,0,1,339.34,551a47.64,47.64,0,0,1-9.46,15.86,45.87,45.87,0,0,1-14.48,10.69A42.52,42.52,0,0,1,297,581.53Zm-7.1-17.33a28,28,0,0,0,12.52-2.76,30.77,30.77,0,0,0,9.65-7.38,33.24,33.24,0,0,0,6.21-10.5,35.13,35.13,0,0,0,2.17-12.17A32.23,32.23,0,0,0,318,518.86a33.16,33.16,0,0,0-6.7-10.33,31,31,0,0,0-10.14-7A31.67,31.67,0,0,0,288.31,499a28.07,28.07,0,0,0-8.67,1.47,35.54,35.54,0,0,0-8.47,4.06,33,33,0,0,0-6.9,6,20,20,0,0,0-4,7.06,2.92,2.92,0,0,0-.12.83v24.23a2.63,2.63,0,0,0,.25,1.14,37.59,37.59,0,0,0,11.87,14.39,34.52,34.52,0,0,0,8.37,4.42A26.65,26.65,0,0,0,289.88,564.2Z" transform="translate(-24.28 -405.47)"/><path class="e1c2c7ec-9ad6-43c7-a9d4-89ed0e1045c1" d="M362.2,464.77v-17a2.66,2.66,0,0,1,2.66-2.66h16.35a2.66,2.66,0,0,1,2.66,2.66v17a2.67,2.67,0,0,1-2.66,2.66H364.86A2.67,2.67,0,0,1,362.2,464.77Zm0,112.26V485.94a2.66,2.66,0,0,1,2.66-2.66h16.35a2.66,2.66,0,0,1,2.66,2.66V577a2.66,2.66,0,0,1-2.66,2.66H364.86A2.66,2.66,0,0,1,362.2,577Z" transform="translate(-24.28 -405.47)"/><path class="e1c2c7ec-9ad6-43c7-a9d4-89ed0e1045c1" d="M451.85,581.53a46.81,46.81,0,0,1-19.31-4,48.14,48.14,0,0,1-15.37-10.79A49.44,49.44,0,0,1,407,550.84a54.62,54.62,0,0,1-.19-38.71,49.51,49.51,0,0,1,9.65-15.76,46.45,46.45,0,0,1,14.58-10.79,42.6,42.6,0,0,1,18.43-4,42,42,0,0,1,21.87,5.62,44.54,44.54,0,0,1,10.16,8.17,2.66,2.66,0,0,0,4.62-1.79V447.78a2.66,2.66,0,0,1,2.66-2.66h16.35a2.66,2.66,0,0,1,2.66,2.66V555.72q0,3.51,1.28,5a4.7,4.7,0,0,0,2.53,1.37,2.7,2.7,0,0,1,2.1,2.6v12.74a2.67,2.67,0,0,1-2.29,2.63c-1.21.18-2.25.31-3.13.38-1.37.13-2.53.19-3.44.19q-6.51,0-10.64-3.14a10.88,10.88,0,0,1-4.54-8.11h0a2.66,2.66,0,0,0-4.65-1.6,41.07,41.07,0,0,1-11.31,8.61A46.42,46.42,0,0,1,451.85,581.53Zm5.32-17.33a31.73,31.73,0,0,0,9.46-1.47,34.12,34.12,0,0,0,8.67-4.06,29.61,29.61,0,0,0,6.8-6.08,21.54,21.54,0,0,0,3.92-7.16,2.81,2.81,0,0,0,.12-.82V520.3a2.71,2.71,0,0,0-.2-1,29.81,29.81,0,0,0-4.83-8A35.08,35.08,0,0,0,465,500.42,30.8,30.8,0,0,0,455.6,499a25.93,25.93,0,0,0-11.93,2.76,30.56,30.56,0,0,0-9.36,7.38,35.84,35.84,0,0,0-6.2,10.5,33.71,33.71,0,0,0-2.27,12.17,32.22,32.22,0,0,0,2.46,12.53,32.56,32.56,0,0,0,6.8,10.33,33.28,33.28,0,0,0,9.95,7A28.72,28.72,0,0,0,457.17,564.2Z" transform="translate(-24.28 -405.47)"/><path class="e1c2c7ec-9ad6-43c7-a9d4-89ed0e1045c1" d="M582.1,581.53a58.18,58.18,0,0,1-21.88-4,51,51,0,0,1-16.84-10.79,48.51,48.51,0,0,1-14.68-35,49.38,49.38,0,0,1,14.68-35.3,50.43,50.43,0,0,1,16.84-10.88,58.74,58.74,0,0,1,22.07-4,56.16,56.16,0,0,1,21.78,4.06,52.18,52.18,0,0,1,16.65,10.78,46,46,0,0,1,10.54,15.67,49.1,49.1,0,0,1,3.64,18.71c0,1.47-.06,2.85-.19,4.15l-.09.83a2.66,2.66,0,0,1-2.64,2.39H554.79a2.66,2.66,0,0,0-2.63,3.08,30.16,30.16,0,0,0,2.84,8.53,30.68,30.68,0,0,0,6.9,8.95,30.24,30.24,0,0,0,9.65,5.8,31.92,31.92,0,0,0,11.33,2,37.12,37.12,0,0,0,8.58-1,31.59,31.59,0,0,0,7.78-3,27.53,27.53,0,0,0,6.3-4.7,22.53,22.53,0,0,0,3.39-4.32,2.66,2.66,0,0,1,3-1.22L625.12,556a2.66,2.66,0,0,1,1.57,4q-5.41,8.79-15.92,14.69Q598.45,581.54,582.1,581.53Zm28.25-57.33A2.69,2.69,0,0,0,613,521a30.37,30.37,0,0,0-2.78-8,29.29,29.29,0,0,0-6.8-8.76,30.63,30.63,0,0,0-9.66-5.62,33.46,33.46,0,0,0-11.62-2,32.64,32.64,0,0,0-11.53,2A30.93,30.93,0,0,0,561,504.2a27.93,27.93,0,0,0-6.7,8.76,31.19,31.19,0,0,0-2.69,8,2.67,2.67,0,0,0,2.61,3.2Z" transform="translate(-24.28 -405.47)"/><path class="e1c2c7ec-9ad6-43c7-a9d4-89ed0e1045c1" d="M807.61,579.69H791.26A2.66,2.66,0,0,1,788.6,577V525.68q0-13.45-4.73-19.73t-13.79-6.27A25.58,25.58,0,0,0,753.23,506a35.42,35.42,0,0,0-10.79,16.07,2.68,2.68,0,0,0-.15.89v54a2.66,2.66,0,0,1-2.66,2.66H723.28a2.66,2.66,0,0,1-2.66-2.66V525.68q0-13.65-4.73-19.82t-13.6-6.18A26.23,26.23,0,0,0,685.35,506a34.48,34.48,0,0,0-10.89,16,2.62,2.62,0,0,0-.15.88V577a2.66,2.66,0,0,1-2.66,2.66H655.3a2.66,2.66,0,0,1-2.66-2.66V485.94a2.66,2.66,0,0,1,2.66-2.66h14.38a2.66,2.66,0,0,1,2.66,2.66v8.53a2.66,2.66,0,0,0,4.68,1.72,41.22,41.22,0,0,1,11.38-9.13,46.62,46.62,0,0,1,22.76-5.44q12.81,0,20.2,6.27a26.63,26.63,0,0,1,7.69,10.55,2.64,2.64,0,0,0,4.54.59,44,44,0,0,1,13.28-11.79,44.52,44.52,0,0,1,22.47-5.62q9.06,0,15.07,3.23a25.93,25.93,0,0,1,9.56,8.57,34,34,0,0,1,4.92,12.44,78.61,78.61,0,0,1,1.38,15V577A2.66,2.66,0,0,1,807.61,579.69Z" transform="translate(-24.28 -405.47)"/><path class="e1c2c7ec-9ad6-43c7-a9d4-89ed0e1045c1" d="M835.29,464.77v-17a2.66,2.66,0,0,1,2.66-2.66h16.36a2.66,2.66,0,0,1,2.66,2.66v17a2.67,2.67,0,0,1-2.66,2.66H838A2.67,2.67,0,0,1,835.29,464.77Zm0,112.26V485.94a2.66,2.66,0,0,1,2.66-2.66h16.36a2.66,2.66,0,0,1,2.66,2.66V577a2.66,2.66,0,0,1-2.66,2.66H838A2.66,2.66,0,0,1,835.29,577Z" transform="translate(-24.28 -405.47)"/><path class="bfcb9499-27af-4796-8c10-abac54c060eb" d="M876.28,531.39A49.48,49.48,0,0,1,880,512.22a47,47,0,0,1,10.74-15.85,51.21,51.21,0,0,1,16.85-10.79,58.67,58.67,0,0,1,22.07-4q16,0,27.48,6.54a43.29,43.29,0,0,1,15.52,14.45,2.65,2.65,0,0,1-1.51,3.94l-16,4.74a2.63,2.63,0,0,1-2.9-1,26.27,26.27,0,0,0-9-7.94,28.83,28.83,0,0,0-14-3.41,30.73,30.73,0,0,0-12.12,2.39,29.36,29.36,0,0,0-9.75,6.73,31.63,31.63,0,0,0-6.5,10.23,34.86,34.86,0,0,0-2.37,13.09,33.74,33.74,0,0,0,2.47,13,33,33,0,0,0,6.7,10.41,30.49,30.49,0,0,0,9.85,6.91,29,29,0,0,0,11.92,2.49,31.32,31.32,0,0,0,7.88-1,28.87,28.87,0,0,0,7.19-2.86,28,28,0,0,0,5.72-4.24,16.8,16.8,0,0,0,2.71-3.36,2.67,2.67,0,0,1,3-1.23l16,4.44a2.67,2.67,0,0,1,1.57,3.95,41.66,41.66,0,0,1-15.52,14.73q-12,6.92-28.37,6.91a56.85,56.85,0,0,1-21.88-4.06,51.4,51.4,0,0,1-16.84-11,49.33,49.33,0,0,1-10.84-16A48.48,48.48,0,0,1,876.28,531.39Z" transform="translate(-24.28 -405.47)"/><path class="bfcb9499-27af-4796-8c10-abac54c060eb" d="M1020.51,581.53a40.89,40.89,0,0,1-13.89-2.3,34.06,34.06,0,0,1-11-6.36,29.8,29.8,0,0,1-7.3-9.59,27.33,27.33,0,0,1-2.66-12A24.51,24.51,0,0,1,988.79,539a29.6,29.6,0,0,1,9-9.59,44.88,44.88,0,0,1,13.8-6.26,65.64,65.64,0,0,1,17.63-2.22,86.17,86.17,0,0,1,14.39,1.2,81,81,0,0,1,9.43,2.14,2.66,2.66,0,0,0,3.37-2.57v-3q0-10.68-6.5-16.68t-18.72-6a47.73,47.73,0,0,0-16.25,2.86,80.76,80.76,0,0,0-14.07,6.74,2.66,2.66,0,0,1-3.7-1.07l-4.24-8.17a2.65,2.65,0,0,1,1-3.5q18.92-11.24,39.26-11.24,21.29,0,33.11,10.14t11.82,29.12v34.84c0,3.5,1.25,5.62,3.77,6.35a2.59,2.59,0,0,1,1.94,2.47v12.88a2.65,2.65,0,0,1-2.26,2.63c-1.17.17-2.22.3-3.16.37-1.51.13-3,.19-4.43.19-4.2,0-7.46-1-9.75-3a12.38,12.38,0,0,1-4.22-7.42l0-.27v-.05a2.65,2.65,0,0,0-4.46-1.68,45.63,45.63,0,0,1-13.15,8.77A53,53,0,0,1,1020.51,581.53Zm5.91-14.93a41.34,41.34,0,0,0,14.88-2.67,25.62,25.62,0,0,0,10.94-7.47q4.13-3.32,4.13-7V538.62a2.63,2.63,0,0,0-1.78-2.51,70.47,70.47,0,0,0-9.94-2.51,69.75,69.75,0,0,0-12.12-1.1q-11.62,0-19,4.7t-7.39,12.44a15.25,15.25,0,0,0,5.71,12.07Q1017.56,566.6,1026.42,566.6Z" transform="translate(-24.28 -405.47)"/><path class="bfcb9499-27af-4796-8c10-abac54c060eb" d="M1107.11,445.12h16.36a2.66,2.66,0,0,1,2.66,2.66V551.85c0,3.57,1,6.36,2.95,8.39s4.73,3,8.28,3a20,20,0,0,0,5-.74l2.75-.7a2.65,2.65,0,0,1,3.27,2l2.12,10.67a2.64,2.64,0,0,1-1.68,3,56.27,56.27,0,0,1-9.12,2.39,64.73,64.73,0,0,1-11.62,1.2q-11.24,0-17.44-5.71t-6.21-16.22V447.78A2.66,2.66,0,0,1,1107.11,445.12Z" transform="translate(-24.28 -405.47)"/><path class="bfcb9499-27af-4796-8c10-abac54c060eb" d="M1234.49,578.61l-30.38-41a2.67,2.67,0,0,0-3.9-.41l-14.07,12.4a2.68,2.68,0,0,0-.9,2V577a2.66,2.66,0,0,1-2.66,2.66h-16.36a2.67,2.67,0,0,1-2.66-2.66V447.78a2.67,2.67,0,0,1,2.66-2.66h16.36a2.66,2.66,0,0,1,2.66,2.66v76.3a2.66,2.66,0,0,0,4.53,1.88l42-41.72a2.67,2.67,0,0,1,1.88-.78h16.17a2.66,2.66,0,0,1,1.89,4.53L1217.8,522.2a2.66,2.66,0,0,0-.24,3.47l37.57,49.76a2.66,2.66,0,0,1-2.13,4.26h-16.37A2.66,2.66,0,0,1,1234.49,578.61Z" transform="translate(-24.28 -405.47)"/><rect class="bfcb9499-27af-4796-8c10-abac54c060eb" x="60.84" y="178.07" width="108.33" height="34.13" rx="7.13"/><rect class="bfcb9499-27af-4796-8c10-abac54c060eb" x="60.84" y="87.55" width="71.23" height="34.13" rx="7.13"/><rect class="bfcb9499-27af-4796-8c10-abac54c060eb" x="-62.53" y="492.28" width="212.2" height="38.58" rx="7.13" transform="translate(530.86 62.53) rotate(90)"/><rect class="bfcb9499-27af-4796-8c10-abac54c060eb" x="60.84" width="194.39" height="34.13" rx="7.13"/></svg>